<?xml version="1.0" encoding="utf-8"?>
<!-- Generator: Adobe Illustrator 21.1.0, SVG Export Plug-In . SVG Version: 6.00 Build 0)  -->
<svg version="1.1" id="Layer_1" xmlns="http://www.w3.org/2000/svg" xmlns:xlink="http://www.w3.org/1999/xlink" x="0px" y="0px"
	 viewBox="0 0 255.1 155.9" style="enable-background:new 0 0 255.1 155.9;" xml:space="preserve">
<style type="text/css">
	.st0{clip-path:url(#SVGID_2_);}
</style>
<g>
	<defs>
		<rect id="SVGID_1_" width="255.1" height="155.9"/>
	</defs>
	<clipPath id="SVGID_2_">
		<use xlink:href="#SVGID_1_"  style="overflow:visible;"/>
	</clipPath>
	<path class="st0" d="M222.4,62.1v12.2h12.9V62.1h7v31.8h-7V80.1h-12.9v13.7h-7V62.1H222.4z M204.3,70.5c-0.4-0.7-0.9-1.3-1.6-1.8
		c-0.6-0.5-1.3-0.9-2.1-1.2c-0.8-0.3-1.6-0.4-2.5-0.4c-1.6,0-2.9,0.3-4,0.9c-1.1,0.6-2,1.4-2.7,2.4c-0.7,1-1.2,2.2-1.5,3.5
		c-0.3,1.3-0.5,2.7-0.5,4.1c0,1.3,0.2,2.6,0.5,3.9c0.3,1.3,0.8,2.4,1.5,3.4c0.7,1,1.6,1.8,2.7,2.4c1.1,0.6,2.4,0.9,4,0.9
		c2.1,0,3.8-0.7,5-2c1.2-1.3,1.9-3,2.2-5.2h6.8c-0.2,2-0.6,3.8-1.4,5.4c-0.7,1.6-1.7,3-2.9,4.1c-1.2,1.1-2.6,2-4.3,2.6
		c-1.6,0.6-3.4,0.9-5.4,0.9c-2.4,0-4.6-0.4-6.6-1.3c-1.9-0.8-3.6-2-4.9-3.5c-1.3-1.5-2.4-3.2-3.1-5.2c-0.7-2-1.1-4.2-1.1-6.5
		c0-2.4,0.4-4.6,1.1-6.6c0.7-2,1.7-3.8,3.1-5.3c1.3-1.5,3-2.7,4.9-3.6c1.9-0.9,4.1-1.3,6.6-1.3c1.8,0,3.4,0.3,5,0.8
		c1.6,0.5,3,1.2,4.2,2.2c1.2,1,2.2,2.2,3,3.6c0.8,1.4,1.3,3.1,1.5,4.9h-6.8C204.9,71.9,204.7,71.2,204.3,70.5 M171.6,62.1l11.9,31.8
		h-7.3l-2.4-7.1H162l-2.5,7.1h-7l12-31.8H171.6z M172,81.6l-4-11.7H168l-4.1,11.7H172z M126.6,72.2c0.6-1.8,1.5-3.4,2.6-4.7
		c1.1-1.4,2.5-2.4,4.1-3.2c1.6-0.8,3.5-1.2,5.6-1.2c2.1,0,3.9,0.4,5.5,1.2c1.6,0.8,3,1.9,4.1,3.2c1.1,1.3,2,2.9,2.6,4.7
		c0.6,1.8,0.9,3.7,0.9,5.8c0,2-0.3,4-0.9,5.8c-0.6,1.8-1.5,3.4-2.6,4.7c-1.1,1.4-2.5,2.4-4.1,3.2c-1.6,0.8-3.5,1.2-5.5,1.2
		c-2.1,0-3.9-0.4-5.6-1.2c-1.6-0.8-3-1.9-4.1-3.2c-1.1-1.3-2-2.9-2.6-4.7c-0.6-1.8-0.9-3.7-0.9-5.8C125.7,75.9,126,74,126.6,72.2
		 M152.9,71.4c-0.7-2-1.7-3.8-3-5.3s-2.9-2.7-4.7-3.5c-1.9-0.9-4-1.3-6.4-1.3c-2.4,0-4.5,0.4-6.4,1.3c-1.9,0.9-3.5,2-4.8,3.5
		s-2.3,3.3-3,5.3c-0.7,2-1,4.2-1,6.5c0,2.3,0.3,4.5,1,6.5c0.7,2,1.7,3.8,3,5.3s2.9,2.7,4.8,3.5c1.9,0.9,4,1.3,6.4,1.3
		c2.4,0,4.5-0.4,6.4-1.3c1.9-0.9,3.5-2,4.7-3.5s2.3-3.3,3-5.3c0.7-2,1-4.2,1-6.5C154,75.6,153.6,73.5,152.9,71.4 M118.8,93.8h2V62.1
		h-2V93.8z M92.4,92.2V63.8h8.1c0.8,0,1.6,0.1,2.6,0.2c1,0.1,1.9,0.3,2.9,0.6c1,0.3,1.9,0.8,2.8,1.4c0.9,0.6,1.7,1.4,2.4,2.5
		c0.7,1.1,1.3,2.4,1.7,3.9c0.4,1.5,0.6,3.4,0.6,5.6c0,2.8-0.4,5.1-1.1,6.9c-0.8,1.8-1.7,3.3-3,4.4c-1.2,1.1-2.6,1.9-4.1,2.3
		c-1.5,0.5-3,0.7-4.5,0.7H92.4z M90.4,93.8h10.3c2.6,0,4.8-0.4,6.6-1.2c1.9-0.8,3.4-1.9,4.6-3.4c1.2-1.4,2.1-3.1,2.7-5.1
		c0.6-1.9,0.9-4,0.9-6.3c0-2-0.2-4-0.7-5.9c-0.5-1.9-1.3-3.6-2.4-5.1c-1.1-1.5-2.6-2.7-4.5-3.6c-1.9-0.9-4.3-1.3-7.1-1.3H90.4V93.8z
		 M61.7,62.1v19.1c0,0.7,0,1.5,0.1,2.5c0.1,0.9,0.2,1.9,0.5,2.9c0.3,1,0.7,2,1.2,3c0.5,1,1.2,1.8,2.1,2.6c0.9,0.8,2,1.4,3.3,1.8
		c1.3,0.5,2.9,0.7,4.8,0.7c2.4,0,4.4-0.3,5.9-1c1.6-0.7,2.9-1.7,3.8-2.9c0.9-1.2,1.6-2.6,2-4.3c0.4-1.6,0.6-3.4,0.6-5.3V62.1h-2
		v19.1c0,1.8-0.2,3.4-0.5,4.9c-0.4,1.5-0.9,2.7-1.8,3.7c-0.8,1-1.9,1.8-3.2,2.4c-1.3,0.5-3,0.8-4.9,0.8c-1.5,0-2.9-0.2-3.9-0.6
		c-1.1-0.4-2-0.9-2.7-1.6c-0.7-0.7-1.3-1.4-1.8-2.3c-0.4-0.8-0.8-1.7-1-2.6c-0.2-0.9-0.4-1.7-0.4-2.6c-0.1-0.8-0.1-1.6-0.1-2.2V62.1
		H61.7z M47.4,63.8v30.1h2V63.8h11.2v-1.7H36.3v1.7H47.4z M36.6,71.1c-0.1-1.8-0.5-3.2-1.1-4.5c-0.7-1.2-1.5-2.3-2.6-3.1
		c-1.1-0.8-2.3-1.4-3.8-1.7c-1.4-0.4-3-0.6-4.7-0.6c-1.2,0-2.5,0.2-3.8,0.5c-1.3,0.3-2.4,0.8-3.5,1.5c-1,0.7-1.9,1.5-2.5,2.6
		c-0.6,1.1-1,2.4-1,3.9s0.3,2.8,0.9,3.7c0.6,1,1.4,1.8,2.4,2.4c1,0.6,2.2,1.1,3.5,1.4c1.3,0.4,2.6,0.7,4,0.9c1.4,0.3,2.7,0.6,4,0.9
		c1.3,0.3,2.4,0.7,3.5,1.2c1,0.5,1.8,1.2,2.5,2c0.6,0.8,0.9,1.9,0.9,3.3c0,1.4-0.3,2.6-0.9,3.5c-0.6,0.9-1.4,1.7-2.3,2.2
		c-0.9,0.6-1.9,1-3,1.2c-1.1,0.2-2.1,0.4-3.1,0.4c-1.6,0-3.1-0.2-4.5-0.5c-1.4-0.3-2.7-0.9-3.7-1.7c-1.1-0.8-1.9-1.8-2.5-3
		c-0.6-1.2-0.8-2.7-0.8-4.4h-2c0,2,0.3,3.8,1,5.2c0.7,1.4,1.7,2.6,2.9,3.5c1.2,0.9,2.6,1.6,4.3,2c1.6,0.4,3.4,0.6,5.3,0.6
		c1.2,0,2.5-0.2,3.8-0.5c1.3-0.3,2.5-0.8,3.6-1.5c1.1-0.7,2-1.6,2.7-2.8c0.7-1.1,1.1-2.5,1.1-4.2c0-1.5-0.3-2.8-0.9-3.9
		c-0.6-1-1.4-1.9-2.5-2.5c-1-0.6-2.2-1.1-3.5-1.5c-1.3-0.4-2.6-0.7-4-1c-1.3-0.3-2.7-0.5-4-0.8s-2.5-0.7-3.5-1.2
		c-1-0.5-1.8-1.1-2.4-1.9c-0.6-0.8-0.9-1.8-0.9-3.1c0-1.3,0.3-2.4,0.8-3.3c0.6-0.9,1.3-1.6,2.2-2.1c0.9-0.5,1.8-0.9,2.9-1.1
		c1-0.2,2-0.3,2.9-0.3c1.5,0,2.8,0.2,4,0.5c1.2,0.3,2.3,0.9,3.2,1.5c0.9,0.7,1.6,1.5,2.1,2.5c0.5,1,0.8,2.2,0.9,3.6H36.6z"/>
</g>
</svg>
