<svg id="Layer_1" data-name="Layer 1" xmlns="http://www.w3.org/2000/svg" viewBox="0 0 884.41 198.43"><defs><style>.cls-1{fill:#fff;}</style></defs><title>STUDIOGREGGIO LOGO. REVERSED</title><rect width="884.41" height="198.43"/><rect class="cls-1" x="305.65" y="60.2" width="9.4" height="76.99"/><rect class="cls-1" x="305.65" y="30.65" width="9.4" height="15.07"/><path class="cls-1" d="M100.79,101.23a25.8,25.8,0,0,0-7-4.1,36.1,36.1,0,0,0-8-2.16L73.27,92.12q-2.39-.6-5.22-1.57a25.13,25.13,0,0,1-5.22-2.46,13.87,13.87,0,0,1-4-3.66,8.79,8.79,0,0,1-1.57-5.3,11.29,11.29,0,0,1,1.64-6.26,12.64,12.64,0,0,1,4.33-4.1,19.51,19.51,0,0,1,5.89-2.24,30.91,30.91,0,0,1,6.34-.67,29,29,0,0,1,7.61,1,18.38,18.38,0,0,1,6.34,3.06,15.29,15.29,0,0,1,4.4,5.3,17.75,17.75,0,0,1,1.79,7.53H105a27.89,27.89,0,0,0-2.54-10.89,22.8,22.8,0,0,0-6-7.76,24.88,24.88,0,0,0-8.8-4.62A37.75,37.75,0,0,0,76.85,58a45.22,45.22,0,0,0-10.22,1.19,31.64,31.64,0,0,0-9.33,3.73,20.41,20.41,0,0,0-6.79,6.71,18.48,18.48,0,0,0-2.61,10,18.74,18.74,0,0,0,1.64,8.28,16.25,16.25,0,0,0,4.55,5.67,27.16,27.16,0,0,0,6.79,3.88,67.86,67.86,0,0,0,8.5,2.76l12.09,2.69q3.13.75,6.19,1.79a24,24,0,0,1,5.45,2.61,12.28,12.28,0,0,1,3.8,3.88,10.81,10.81,0,0,1,1.42,5.74,11.21,11.21,0,0,1-2,6.79,16.27,16.27,0,0,1-5.15,4.55,22.77,22.77,0,0,1-6.79,2.54,35.45,35.45,0,0,1-7.09.74q-9.4,0-15.74-4.85t-6.94-14.4h-9.4q1.19,14.18,9.62,20.59t22,6.42a51.57,51.57,0,0,0,10.89-1.19,30.78,30.78,0,0,0,9.92-4A23.14,23.14,0,0,0,104.9,127a19.3,19.3,0,0,0,2.83-10.67,18.86,18.86,0,0,0-1.94-8.8A20.12,20.12,0,0,0,100.79,101.23Z"/><path class="cls-1" d="M129.67,37.07h-9.4V60.2H106.84V68.1h13.43v52.67q-.15,9.85,3.58,13.5T137,137.93c1.39,0,2.78-.05,4.18-.15s2.78-.15,4.18-.15v-7.91a72.77,72.77,0,0,1-8.06.45q-5.07-.3-6.34-2.91a16.83,16.83,0,0,1-1.27-7.24V68.1h15.67V60.2H129.67Z"/><path class="cls-1" d="M284.31,74.82H284a22.29,22.29,0,0,0-4.25-7.31,27.09,27.09,0,0,0-6.34-5.3A28.33,28.33,0,0,0,265.74,59a34.06,34.06,0,0,0-8.43-1A33.51,33.51,0,0,0,242,61.24a31.39,31.39,0,0,0-10.82,8.88,37.75,37.75,0,0,0-6.42,13,59.26,59.26,0,0,0,0,31.19,37.72,37.72,0,0,0,6.42,13,30.56,30.56,0,0,0,10.82,8.8,34.14,34.14,0,0,0,15.29,3.21,31.16,31.16,0,0,0,8.43-1.19,34.4,34.4,0,0,0,8-3.36,28.55,28.55,0,0,0,6.64-5.3,22.15,22.15,0,0,0,4.4-6.86h.3v14.62h8.65V30.65h-9.4Zm-1.42,35.73a31,31,0,0,1-4.62,10.52,24.94,24.94,0,0,1-8.36,7.54,25.29,25.29,0,0,1-12.61,2.91,21.67,21.67,0,0,1-11.49-2.91,24.61,24.61,0,0,1-7.83-7.54,32.73,32.73,0,0,1-4.48-10.52,50.35,50.35,0,0,1,0-23.72A32.8,32.8,0,0,1,238,76.31a24.66,24.66,0,0,1,7.83-7.53,21.67,21.67,0,0,1,11.49-2.91,25.29,25.29,0,0,1,12.61,2.91,25,25,0,0,1,8.36,7.53,31.05,31.05,0,0,1,4.62,10.52,50.35,50.35,0,0,1,0,23.72Z"/><path class="cls-1" d="M204.54,100.63A48.66,48.66,0,0,1,203.19,112,31.27,31.27,0,0,1,199,122a22.18,22.18,0,0,1-7.16,6.94,19.85,19.85,0,0,1-10.44,2.61q-11.19,0-15.74-5.37t-4.85-15.82V60.2h-9.4v50a45.79,45.79,0,0,0,1.49,12.24,23.21,23.21,0,0,0,4.7,9.1,20.73,20.73,0,0,0,8.36,5.74,34.21,34.21,0,0,0,12.46,2,30.86,30.86,0,0,0,15.74-4.1A26.68,26.68,0,0,0,205,123.31h.3v13.88h8.65v-77h-9.4Z"/><path class="cls-1" d="M649.6,73.47h-.3a22.85,22.85,0,0,0-3.8-6,29.91,29.91,0,0,0-5.59-5A25.77,25.77,0,0,0,633,59.15,27.09,27.09,0,0,0,624.83,58,34.45,34.45,0,0,0,610,61a31.34,31.34,0,0,0-10.89,8.36,37.25,37.25,0,0,0-6.71,12.39,48,48,0,0,0-2.31,15A59.38,59.38,0,0,0,592,112.19a34.35,34.35,0,0,0,6.19,12.61A29.33,29.33,0,0,0,609,133.23a37.2,37.2,0,0,0,15.82,3.06A25.7,25.7,0,0,0,639.68,132a27.49,27.49,0,0,0,9.62-11.49h.3v10.44q0,14-5.82,21.49t-18.95,7.46a35.42,35.42,0,0,1-7.61-.82,23.23,23.23,0,0,1-6.79-2.61,17.38,17.38,0,0,1-5.22-4.7,16.63,16.63,0,0,1-2.91-7.24h-9.4A21.59,21.59,0,0,0,596.26,155a24.78,24.78,0,0,0,7.31,7.24,32.25,32.25,0,0,0,9.92,4.18,47.7,47.7,0,0,0,11.34,1.34,43.8,43.8,0,0,0,15.89-2.54,25.71,25.71,0,0,0,10.52-7.31,30,30,0,0,0,5.9-11.64A58.72,58.72,0,0,0,659,130.92V60.2h-9.4ZM648,109.13a30.18,30.18,0,0,1-4.7,9.77,24.47,24.47,0,0,1-7.76,6.86,21.46,21.46,0,0,1-10.74,2.61,23.25,23.25,0,0,1-11.34-2.61,23.93,23.93,0,0,1-7.91-6.86,29.1,29.1,0,0,1-4.63-9.77,43.25,43.25,0,0,1-1.49-11.34,48.62,48.62,0,0,1,1.42-11.71,30.28,30.28,0,0,1,4.55-10.22,24.49,24.49,0,0,1,7.91-7.24,22.58,22.58,0,0,1,11.49-2.76,21.74,21.74,0,0,1,11.41,2.83,23.49,23.49,0,0,1,7.68,7.46,32.83,32.83,0,0,1,4.33,10.3,49.11,49.11,0,0,1,1.34,11.34A41.39,41.39,0,0,1,648,109.13Z"/><path class="cls-1" d="M726.93,73.47h-.3a22.85,22.85,0,0,0-3.8-6,29.92,29.92,0,0,0-5.6-5,25.69,25.69,0,0,0-6.94-3.36A27.07,27.07,0,0,0,702.16,58,34.45,34.45,0,0,0,687.32,61a31.33,31.33,0,0,0-10.89,8.36,37.21,37.21,0,0,0-6.71,12.39,48,48,0,0,0-2.31,15,59.49,59.49,0,0,0,1.94,15.44,34.32,34.32,0,0,0,6.19,12.61,29.34,29.34,0,0,0,10.82,8.43,37.2,37.2,0,0,0,15.82,3.06A25.7,25.7,0,0,0,717,132a27.49,27.49,0,0,0,9.62-11.49h.3v10.44q0,14-5.82,21.49t-18.95,7.46a35.4,35.4,0,0,1-7.61-.82,23.21,23.21,0,0,1-6.79-2.61,17.44,17.44,0,0,1-5.22-4.7,16.69,16.69,0,0,1-2.91-7.24h-9.4A21.57,21.57,0,0,0,673.59,155a24.77,24.77,0,0,0,7.31,7.24,32.27,32.27,0,0,0,9.92,4.18,47.68,47.68,0,0,0,11.34,1.34,43.81,43.81,0,0,0,15.89-2.54,25.71,25.71,0,0,0,10.52-7.31,30,30,0,0,0,5.89-11.64,58.62,58.62,0,0,0,1.86-15.37V60.2h-9.4Zm-1.57,35.66a30.17,30.17,0,0,1-4.7,9.77,24.45,24.45,0,0,1-7.76,6.86,21.45,21.45,0,0,1-10.74,2.61,23.24,23.24,0,0,1-11.34-2.61,23.91,23.91,0,0,1-7.91-6.86,29,29,0,0,1-4.63-9.77,43.25,43.25,0,0,1-1.49-11.34,48.75,48.75,0,0,1,1.42-11.71,30.33,30.33,0,0,1,4.55-10.22,24.55,24.55,0,0,1,7.91-7.24,22.6,22.6,0,0,1,11.49-2.76,21.73,21.73,0,0,1,11.41,2.83,23.47,23.47,0,0,1,7.68,7.46,32.72,32.72,0,0,1,4.33,10.3,49.11,49.11,0,0,1,1.34,11.34A41.3,41.3,0,0,1,725.37,109.13Z"/><rect class="cls-1" x="748.36" y="60.2" width="9.4" height="76.99"/><path class="cls-1" d="M387.09,70a34.07,34.07,0,0,0-11.41-8.81,38.68,38.68,0,0,0-31.19,0A34,34,0,0,0,333.07,70a38,38,0,0,0-7,12.91,53.09,53.09,0,0,0,0,31.48,38,38,0,0,0,7,12.91,33.05,33.05,0,0,0,11.41,8.73,39.49,39.49,0,0,0,31.19,0,33.15,33.15,0,0,0,11.41-8.73,38.18,38.18,0,0,0,7-12.91,53.09,53.09,0,0,0,0-31.48A38.15,38.15,0,0,0,387.09,70Zm-1.72,40.66a33.79,33.79,0,0,1-5.07,10.52,25.83,25.83,0,0,1-8.43,7.46,25.92,25.92,0,0,1-23.57,0,25.85,25.85,0,0,1-8.43-7.46,33.78,33.78,0,0,1-5.07-10.52,42.88,42.88,0,0,1,0-24,33.82,33.82,0,0,1,5.07-10.52,25.92,25.92,0,0,1,8.43-7.46,25.92,25.92,0,0,1,23.57,0,25.89,25.89,0,0,1,8.43,7.46,33.83,33.83,0,0,1,5.07,10.52,42.88,42.88,0,0,1,0,24Z"/><path class="cls-1" d="M836.81,83a38.11,38.11,0,0,0-7-12.91,34,34,0,0,0-11.41-8.81,38.68,38.68,0,0,0-31.19,0A34,34,0,0,0,775.78,70a38,38,0,0,0-7,12.91,53.09,53.09,0,0,0,0,31.48,38,38,0,0,0,7,12.91,33.1,33.1,0,0,0,11.41,8.73,39.49,39.49,0,0,0,31.19,0,33.1,33.1,0,0,0,11.41-8.73,38.13,38.13,0,0,0,7-12.91,53.09,53.09,0,0,0,0-31.48Zm-8.73,27.75A33.84,33.84,0,0,1,823,121.22a25.88,25.88,0,0,1-8.43,7.46,25.92,25.92,0,0,1-23.57,0,25.8,25.8,0,0,1-8.43-7.46,33.79,33.79,0,0,1-5.07-10.52,42.88,42.88,0,0,1,0-24,33.83,33.83,0,0,1,5.07-10.52A25.87,25.87,0,0,1,791,68.7a25.92,25.92,0,0,1,23.57,0A25.94,25.94,0,0,1,823,76.16a33.88,33.88,0,0,1,5.07,10.52,42.88,42.88,0,0,1,0,24Z"/><rect class="cls-1" x="748.36" y="30.65" width="9.4" height="15.07"/><path class="cls-1" d="M460.47,73.47h-.3a22.85,22.85,0,0,0-3.8-6,29.91,29.91,0,0,0-5.59-5,25.77,25.77,0,0,0-6.94-3.36A27.09,27.09,0,0,0,435.7,58,34.45,34.45,0,0,0,420.85,61,31.34,31.34,0,0,0,410,69.37a37.21,37.21,0,0,0-6.71,12.39,48,48,0,0,0-2.31,15,59.38,59.38,0,0,0,1.94,15.44,34.35,34.35,0,0,0,6.19,12.61,29.33,29.33,0,0,0,10.82,8.43,37.19,37.19,0,0,0,15.82,3.06A25.69,25.69,0,0,0,450.54,132a27.49,27.49,0,0,0,9.62-11.49h.3v10.44q0,14-5.82,21.49t-18.95,7.46a35.42,35.42,0,0,1-7.61-.82,23.2,23.2,0,0,1-6.79-2.61,17.38,17.38,0,0,1-5.22-4.7,16.63,16.63,0,0,1-2.91-7.24h-9.4A21.59,21.59,0,0,0,407.12,155a24.77,24.77,0,0,0,7.31,7.24,32.3,32.3,0,0,0,9.92,4.18,47.71,47.71,0,0,0,11.34,1.34,43.8,43.8,0,0,0,15.89-2.54,25.71,25.71,0,0,0,10.52-7.31A30,30,0,0,0,468,146.29a58.61,58.61,0,0,0,1.87-15.37V60.2h-9.4Zm-1.57,35.66a30.23,30.23,0,0,1-4.7,9.77,24.47,24.47,0,0,1-7.76,6.86,21.46,21.46,0,0,1-10.74,2.61,23.25,23.25,0,0,1-11.34-2.61,23.93,23.93,0,0,1-7.91-6.86,29.1,29.1,0,0,1-4.63-9.77,43.25,43.25,0,0,1-1.49-11.34,48.63,48.63,0,0,1,1.42-11.71,30.23,30.23,0,0,1,4.55-10.22,24.49,24.49,0,0,1,7.91-7.24,22.58,22.58,0,0,1,11.49-2.76,21.74,21.74,0,0,1,11.41,2.83,23.49,23.49,0,0,1,7.68,7.46,32.83,32.83,0,0,1,4.33,10.3,49.11,49.11,0,0,1,1.34,11.34A41.39,41.39,0,0,1,458.9,109.13Z"/><path class="cls-1" d="M519.91,59.15q-10.44-.45-18,4.63a29.54,29.54,0,0,0-11.12,14.47h-.3V60.2h-8.65v77h9.4v-41a29.7,29.7,0,0,1,2.09-11.27,25.89,25.89,0,0,1,5.9-8.88,26.17,26.17,0,0,1,9-5.74,28.35,28.35,0,0,1,11.64-1.72Z"/><path class="cls-1" d="M578.73,71.46A30.44,30.44,0,0,0,552.24,58a33.3,33.3,0,0,0-15.74,3.51,31.1,31.1,0,0,0-10.82,9.25,40.13,40.13,0,0,0-6.19,13.05,56,56,0,0,0-2,14.92,59.07,59.07,0,0,0,2,15.59,38.33,38.33,0,0,0,6.19,13,28.92,28.92,0,0,0,10.82,8.8,35.84,35.84,0,0,0,15.74,3.21q14.62,0,22.61-7.16t11-20.29h-9.4a28.24,28.24,0,0,1-8.06,14.32q-5.82,5.37-16.12,5.37a22.09,22.09,0,0,1-11.49-2.83,26,26,0,0,1-7.91-7.16,28.81,28.81,0,0,1-4.55-9.77,41.6,41.6,0,0,1-1.42-10.52h59.24a60.91,60.91,0,0,0-1.49-15.89A40.51,40.51,0,0,0,578.73,71.46ZM526.87,93.32a43.12,43.12,0,0,1,2.46-10.22,30.49,30.49,0,0,1,5-8.8,24.1,24.1,0,0,1,7.61-6.12,22.14,22.14,0,0,1,10.3-2.31,21.81,21.81,0,0,1,10.15,2.31A24.07,24.07,0,0,1,570,74.3,28.23,28.23,0,0,1,574.85,83a34.1,34.1,0,0,1,1.86,10.3Z"/></svg>